<svg width="82" height="35" viewBox="0 0 82 35" fill="none" xmlns="http://www.w3.org/2000/svg">
<path fill-rule="evenodd" clip-rule="evenodd" d="M12.4819 21.875C12.468 21.8779 12.616 21.8801 12.8866 21.8823L17.5 28.8021L22.1061 21.8925L22.6924 21.8961C26.6335 22.7952 30.625 24.6283 30.625 27.386V30.625H4.375V27.386C4.375 24.6283 8.54073 22.7741 12.4819 21.875ZM24.0625 24.7917C24.5489 25.278 25.5208 25.7636 25.5208 25.7636C25.5208 25.7636 25.0119 27.7083 24.0625 27.7083C23.1131 27.7083 22.6042 25.7636 22.6042 25.7636C22.6042 25.7636 23.5761 25.278 24.0625 24.7917Z" fill="#405AE1"/>
<path d="M18.5937 21.875H16.4062C16.2129 21.875 16.0274 21.9518 15.8906 22.0886C15.7539 22.2253 15.6771 22.4108 15.6771 22.6042V23.6119C15.6772 23.7473 15.7149 23.8799 15.7861 23.9951C15.8573 24.1102 15.9592 24.2032 16.0803 24.2638L16.4062 24.4271L16.0008 26.6146V29.8958H19.0633V26.7772L18.5937 24.4271L18.9197 24.2638C19.0408 24.2032 19.1426 24.1102 19.2139 23.9951C19.2851 23.8799 19.3228 23.7473 19.3229 23.6119V22.6042C19.3229 22.4108 19.2461 22.2253 19.1093 22.0886C18.9726 21.9518 18.7871 21.875 18.5937 21.875Z" fill="#405AE1"/>
<path fill-rule="evenodd" clip-rule="evenodd" d="M12.5446 12.0364C12.654 12.0061 12.769 12.0018 12.8804 12.0238C12.9918 12.0458 13.0966 12.0936 13.1862 12.1632C13.7769 12.6219 15.0019 13.125 17.5 13.125C19.9974 13.125 21.2231 12.6219 21.8137 12.1625C21.9036 12.0928 22.0084 12.0451 22.12 12.0231C22.2315 12.0012 22.3466 12.0056 22.4562 12.0361C22.5657 12.0665 22.6666 12.1222 22.7508 12.1986C22.8349 12.275 22.9001 12.37 22.941 12.476C23.2828 13.3599 23.4041 14.3136 23.2945 15.2549C23.1849 16.1961 22.8476 17.0965 22.3119 17.8781C21.7761 18.6597 21.058 19.299 20.2196 19.7408C19.3813 20.1825 18.448 20.4134 17.5004 20.4134C16.5528 20.4134 15.6194 20.1825 14.7811 19.7408C13.9427 19.299 13.2246 18.6597 12.6889 17.8781C12.1531 17.0965 11.8158 16.1961 11.7062 15.2549C11.5966 14.3136 11.7179 13.3599 12.0597 12.476C12.1006 12.37 12.1658 12.2751 12.25 12.1987C12.3342 12.1224 12.4351 12.0668 12.5446 12.0364ZM13.1862 13.8491C13.0801 14.4764 13.1122 15.1194 13.2801 15.7331C13.448 16.3468 13.7477 16.9165 14.1584 17.4025C14.5691 17.8885 15.0809 18.279 15.658 18.5469C16.2351 18.8148 16.8637 18.9536 17.5 18.9536C18.1363 18.9536 18.7649 18.8148 19.342 18.5469C19.9191 18.279 20.4309 17.8885 20.8416 17.4025C21.2523 16.9165 21.552 16.3468 21.7199 15.7331C21.8878 15.1194 21.9198 14.4764 21.8137 13.8491C20.841 14.2968 19.4585 14.5833 17.5 14.5833C15.5422 14.5833 14.159 14.296 13.1862 13.8498V13.8491Z" fill="#FF9430"/>
<path fill-rule="evenodd" clip-rule="evenodd" d="M17.5 4.375C17.5 4.375 9.84375 5.66854 9.84375 7.3624C9.84375 9.62062 11.2365 10.5729 11.2365 10.5729H23.7635C23.7635 10.5729 25.1562 9.62062 25.1562 7.3624C25.1562 5.66854 17.5 4.375 17.5 4.375ZM24.0538 11.6667C24.0538 11.6667 24.5831 14.5833 17.5 14.5833C10.4169 14.5833 10.9463 11.6667 10.9463 11.6667H24.0538ZM17.5 8.75C17.7901 8.75 18.0683 8.63477 18.2734 8.42965C18.4785 8.22453 18.5938 7.94633 18.5938 7.65625C18.5938 7.36617 18.4785 7.08797 18.2734 6.88285C18.0683 6.67773 17.7901 6.5625 17.5 6.5625C17.2099 6.5625 16.9317 6.67773 16.7266 6.88285C16.5215 7.08797 16.4062 7.36617 16.4062 7.65625C16.4062 7.94633 16.5215 8.22453 16.7266 8.42965C16.9317 8.63477 17.2099 8.75 17.5 8.75Z" fill="#FF9430"/>
<path d="M45.5342 19.2354C45.5342 17.8936 45.0566 17.0527 44.1016 16.7129C43.7734 16.5957 43.3896 16.5371 42.9502 16.5371C42.5107 16.5371 42.1328 16.5869 41.8164 16.6865C41.5 16.7861 41.2363 16.9209 41.0254 17.0908C40.5977 17.4365 40.3838 17.8936 40.3838 18.4619C40.3838 19.3232 41.0166 20.0586 42.2822 20.668L43.3809 21.1865C43.9141 21.4326 44.4268 21.6846 44.9189 21.9424C45.417 22.1943 45.8564 22.4844 46.2373 22.8125C47.0752 23.5273 47.4941 24.4121 47.4941 25.4668C47.4941 26.5977 47.002 27.5088 46.0176 28.2002C45.0977 28.8447 43.9434 29.167 42.5547 29.167C41.4531 29.167 40.4805 28.9941 39.6367 28.6484C39.0156 28.4023 38.5732 28.0537 38.3096 27.6025C38.1748 27.374 38.1074 27.0957 38.1074 26.7676C38.1074 26.1113 38.2715 25.499 38.5996 24.9307C38.7109 24.7959 38.8633 24.7285 39.0566 24.7285C39.4316 24.7285 39.6484 24.8398 39.707 25.0625C39.7832 26.0762 40.0938 26.8145 40.6387 27.2773C41.1895 27.7402 41.957 27.9717 42.9414 27.9717C44.0723 27.9717 44.8311 27.6025 45.2178 26.8643C45.3525 26.6064 45.4199 26.3047 45.4199 25.959C45.4199 25.6074 45.3262 25.2939 45.1387 25.0186C44.9512 24.7432 44.7021 24.4883 44.3916 24.2539C43.917 23.9023 43.2871 23.5625 42.502 23.2344C41.7227 22.9062 41.1133 22.6191 40.6738 22.373C40.2402 22.127 39.8564 21.8398 39.5225 21.5117C38.7959 20.7969 38.4326 19.915 38.4326 18.8662C38.4326 17.7939 38.8926 16.9355 39.8125 16.291C40.6973 15.6699 41.8398 15.3594 43.2402 15.3594C45.0156 15.3594 46.1758 15.7256 46.7207 16.458C46.9199 16.7217 47.0195 17.0674 47.0195 17.4951C47.0195 17.9229 46.9785 18.2949 46.8965 18.6113C46.8203 18.9277 46.7441 19.1328 46.668 19.2266C46.5391 19.3848 46.3164 19.4639 46 19.4639C45.6895 19.4639 45.5342 19.3877 45.5342 19.2354ZM55.7822 27.8838C54.9268 28.7393 53.8926 29.167 52.6797 29.167C51.7422 29.167 50.9922 28.8975 50.4297 28.3584C49.8613 27.8135 49.5771 27.1074 49.5771 26.2402C49.5771 25.1621 50.0576 24.3535 51.0186 23.8145C51.8857 23.3223 53.1074 23.0762 54.6836 23.0762H55.7822C55.7881 22.8535 55.791 22.6367 55.791 22.4258V21.7666C55.791 20.9814 55.6768 20.4277 55.4482 20.1055C55.1904 19.7422 54.751 19.5605 54.1299 19.5605C52.7061 19.5605 51.9736 20.0703 51.9326 21.0898C51.9268 21.248 51.9297 21.3799 51.9414 21.4854C51.8242 21.5791 51.625 21.626 51.3438 21.626C51.0684 21.626 50.8662 21.5938 50.7373 21.5293C50.6143 21.4648 50.5059 21.377 50.4121 21.2656C50.2129 21.0371 50.1133 20.7471 50.1133 20.3955C50.1133 20.0381 50.2158 19.7275 50.4209 19.4639C50.6318 19.1943 50.916 18.9746 51.2734 18.8047C51.9707 18.459 52.7939 18.2861 53.7432 18.2861C54.6924 18.2861 55.4043 18.3799 55.8789 18.5674C56.3594 18.749 56.7402 18.9922 57.0215 19.2969C57.5195 19.8359 57.7686 20.5596 57.7686 21.4678L57.6807 25.6865C57.6807 26.4541 57.7158 26.9404 57.7861 27.1455C57.8623 27.3506 57.9502 27.4883 58.0498 27.5586C58.1553 27.6289 58.2812 27.6641 58.4277 27.6641C58.5801 27.6641 58.7031 27.6406 58.7969 27.5938L59.043 27.4795C59.125 27.4502 59.1953 27.4854 59.2539 27.585C59.3184 27.6787 59.3506 27.7637 59.3506 27.8398C59.3506 27.9102 59.3184 28.0039 59.2539 28.1211C59.1953 28.2383 59.0811 28.3643 58.9111 28.499C58.7471 28.6279 58.5596 28.7422 58.3486 28.8418C57.1826 29.3926 56.3887 29.2637 55.9668 28.4551C55.8789 28.2969 55.8174 28.1064 55.7822 27.8838ZM55.7559 26.7324C55.7559 25.8887 55.7617 25.0508 55.7734 24.2188C54.5547 24.2656 53.7256 24.3447 53.2861 24.4561C52.8525 24.5615 52.5391 24.6641 52.3457 24.7637C52.1523 24.8633 52 24.9805 51.8887 25.1152C51.707 25.3379 51.6162 25.6748 51.6162 26.126C51.6162 26.5713 51.7744 26.9287 52.0908 27.1982C52.4072 27.4619 52.8613 27.5938 53.4531 27.5938C54.291 27.5938 55.0586 27.3066 55.7559 26.7324Z" fill="#FF9430"/>
<path d="M66.5664 21.4062C66.5664 20.5039 66.1914 19.9062 65.4414 19.6133C65.2012 19.5195 64.9404 19.4727 64.6592 19.4727C64.3838 19.4727 64.126 19.4961 63.8857 19.543C63.6514 19.5898 63.4434 19.6631 63.2617 19.7627C62.8516 19.9854 62.6465 20.3047 62.6465 20.7207C62.6465 21.1191 62.8164 21.4648 63.1562 21.7578C63.5312 22.0684 64.2285 22.4521 65.248 22.9092C66.2676 23.3604 67.0527 23.8555 67.6035 24.3945C68.1602 24.9277 68.4385 25.543 68.4385 26.2402C68.4385 27.0254 68.1162 27.6875 67.4717 28.2266C66.7158 28.8535 65.6699 29.167 64.334 29.167C62.6992 29.167 61.5684 28.8184 60.9414 28.1211C60.7246 27.875 60.6162 27.5615 60.6162 27.1807C60.6162 26.2607 60.8418 25.7246 61.293 25.5723C61.4043 25.5371 61.5098 25.5195 61.6094 25.5195C61.8848 25.5195 62.0342 25.6045 62.0576 25.7744C62.1865 27.2393 63.0068 27.9717 64.5186 27.9717C65.4268 27.9717 66.0332 27.7168 66.3379 27.207C66.4375 27.043 66.4873 26.8438 66.4873 26.6094C66.4873 26.375 66.4111 26.1611 66.2588 25.9678C66.1123 25.7744 65.9072 25.5957 65.6436 25.4316C65.3799 25.2617 65.0664 25.0977 64.7031 24.9395L63.5342 24.4121C61.7412 23.5918 60.8447 22.502 60.8447 21.1426C60.8447 20.2637 61.2344 19.5605 62.0137 19.0332C62.752 18.5352 63.7041 18.2861 64.8701 18.2861C66.4521 18.2861 67.4365 18.6289 67.8232 19.3145C67.9229 19.4902 67.9727 19.6836 67.9727 19.8945C67.9727 20.1055 67.9609 20.2959 67.9375 20.4658C67.9141 20.6299 67.8848 20.7793 67.8496 20.9141C67.791 21.1719 67.7236 21.3535 67.6475 21.459C67.4951 21.5703 67.2754 21.626 66.9883 21.626C66.707 21.626 66.5664 21.5527 66.5664 21.4062ZM77.6318 25.9678C77.6436 25.8389 77.8193 25.7744 78.1592 25.7744C78.3174 25.7744 78.4199 25.8066 78.4668 25.8711C78.5137 25.9297 78.5664 26.0293 78.625 26.1699C78.6836 26.3047 78.7363 26.4629 78.7832 26.6445C78.8887 27.0547 78.9414 27.459 78.9414 27.8574C78.9414 28.2559 78.8389 28.5459 78.6338 28.7275C78.4287 28.9092 78.0947 29 77.6318 29H71.5234C71.1484 29 70.8584 28.8447 70.6533 28.5342C70.46 28.3408 70.3633 28.0801 70.3633 27.752C70.3633 27.5703 70.4014 27.4414 70.4775 27.3652C72.7627 24.5645 74.1338 22.8623 74.5908 22.2588C75.0479 21.6553 75.3965 21.1719 75.6367 20.8086C75.877 20.4453 76.0527 20.1934 76.1641 20.0527L76.5068 19.6133L73.6504 19.71C73.1289 19.7334 72.7393 19.8535 72.4814 20.0703C72.2236 20.2871 72.0977 20.6475 72.1035 21.1514C72.0918 21.2744 71.9336 21.3359 71.6289 21.3359C71.4707 21.3359 71.3682 21.3066 71.3213 21.248C71.2744 21.1836 71.2158 21.1016 71.1455 21.002C71.0811 20.8965 71.0195 20.7734 70.9609 20.6328C70.8262 20.3164 70.7588 19.9648 70.7588 19.5781C70.7588 19.1914 70.8525 18.9072 71.04 18.7256C71.2334 18.5439 71.5615 18.4531 72.0244 18.4531H78.0449C78.3145 18.4531 78.5137 18.7344 78.6426 19.2969C78.6777 19.4375 78.6953 19.5576 78.6953 19.6572C78.6953 19.7568 78.6719 19.8389 78.625 19.9033L77.2451 21.7402L74.3887 25.3965C73.9199 26 73.5625 26.4775 73.3164 26.8291C73.0762 27.1807 72.9121 27.4121 72.8242 27.5234L72.5693 27.8486L76.085 27.7168C76.6123 27.6875 77.002 27.5146 77.2539 27.1982C77.5117 26.876 77.6377 26.4658 77.6318 25.9678Z" fill="#405AE1"/>
</svg>
