<svg width="154" height="60" viewBox="0 0 154 60" fill="none" xmlns="http://www.w3.org/2000/svg">
<path fill-rule="evenodd" clip-rule="evenodd" d="M21.3975 37.5C21.3737 37.505 21.6275 37.5088 22.0913 37.5125L30 49.375L37.8962 37.53L38.9013 37.5362C45.6575 39.0775 52.5 42.22 52.5 46.9475V52.5H7.5V46.9475C7.5 42.22 14.6412 39.0412 21.3975 37.5ZM41.25 42.5C42.0838 43.3337 43.75 44.1663 43.75 44.1663C43.75 44.1663 42.8775 47.5 41.25 47.5C39.6225 47.5 38.75 44.1663 38.75 44.1663C38.75 44.1663 40.4162 43.3337 41.25 42.5Z" fill="white"/>
<path d="M31.875 37.5H28.125C27.7935 37.5 27.4755 37.6317 27.2411 37.8661C27.0067 38.1005 26.875 38.4185 26.875 38.75V40.4775C26.8751 40.7096 26.9399 40.937 27.0619 41.1344C27.184 41.3318 27.3586 41.4913 27.5662 41.595L28.125 41.875L27.43 45.625V51.25H32.68V45.9037L31.875 41.875L32.4338 41.595C32.6414 41.4913 32.816 41.3318 32.9381 41.1344C33.0601 40.937 33.1249 40.7096 33.125 40.4775V38.75C33.125 38.4185 32.9933 38.1005 32.7589 37.8661C32.5245 37.6317 32.2065 37.5 31.875 37.5Z" fill="white"/>
<path fill-rule="evenodd" clip-rule="evenodd" d="M21.505 20.6337C21.6926 20.5818 21.8898 20.5745 22.0807 20.6122C22.2717 20.65 22.4512 20.7318 22.605 20.8512C23.6175 21.6375 25.7175 22.5 30 22.5C34.2812 22.5 36.3825 21.6375 37.395 20.85C37.549 20.7305 37.7287 20.6487 37.9199 20.6111C38.1111 20.5734 38.3085 20.581 38.4963 20.6333C38.684 20.6855 38.857 20.7809 39.0013 20.9118C39.1456 21.0428 39.2573 21.2057 39.3275 21.3875C39.9134 22.9026 40.1214 24.5377 39.9335 26.1512C39.7455 27.7648 39.1673 29.3083 38.2489 30.6482C37.3305 31.9881 36.0994 33.0841 34.6623 33.8413C33.2251 34.5986 31.6251 34.9943 30.0006 34.9943C28.3761 34.9943 26.7761 34.5986 25.339 33.8413C23.9018 33.0841 22.6708 31.9881 21.7523 30.6482C20.8339 29.3083 20.2557 27.7648 20.0678 26.1512C19.8798 24.5377 20.0878 22.9026 20.6737 21.3875C20.744 21.2058 20.8557 21.043 21 20.9121C21.1444 20.7812 21.3173 20.6859 21.505 20.6337ZM22.605 23.7412C22.4231 24.8167 22.478 25.9189 22.7658 26.971C23.0537 28.0231 23.5675 28.9997 24.2716 29.8328C24.9756 30.6659 25.8529 31.3354 26.8423 31.7947C27.8316 32.2539 28.9092 32.4918 30 32.4918C31.0907 32.4918 32.1684 32.2539 33.1577 31.7947C34.1471 31.3354 35.0244 30.6659 35.7284 29.8328C36.4324 28.9997 36.9463 28.0231 37.2341 26.971C37.522 25.9189 37.5769 24.8167 37.395 23.7412C35.7275 24.5087 33.3575 25 30 25C26.6437 25 24.2725 24.5075 22.605 23.7425V23.7412Z" fill="#FF9430"/>
<path fill-rule="evenodd" clip-rule="evenodd" d="M30 7.5C30 7.5 16.875 9.7175 16.875 12.6213C16.875 16.4925 19.2625 18.125 19.2625 18.125H40.7375C40.7375 18.125 43.125 16.4925 43.125 12.6213C43.125 9.7175 30 7.5 30 7.5ZM41.235 20C41.235 20 42.1425 25 30 25C17.8575 25 18.765 20 18.765 20H41.235ZM30 15C30.4973 15 30.9742 14.8025 31.3258 14.4508C31.6775 14.0992 31.875 13.6223 31.875 13.125C31.875 12.6277 31.6775 12.1508 31.3258 11.7992C30.9742 11.4475 30.4973 11.25 30 11.25C29.5027 11.25 29.0258 11.4475 28.6742 11.7992C28.3225 12.1508 28.125 12.6277 28.125 13.125C28.125 13.6223 28.3225 14.0992 28.6742 14.4508C29.0258 14.8025 29.5027 15 30 15Z" fill="#FF9430"/>
<path d="M77.0684 33.4707C77.0684 30.7871 76.1133 29.1055 74.2031 28.4258C73.5469 28.1914 72.7793 28.0742 71.9004 28.0742C71.0215 28.0742 70.2656 28.1738 69.6328 28.373C69 28.5723 68.4727 28.8418 68.0508 29.1816C67.1953 29.873 66.7676 30.7871 66.7676 31.9238C66.7676 33.6465 68.0332 35.1172 70.5645 36.3359L72.7617 37.373C73.8281 37.8652 74.8535 38.3691 75.8379 38.8848C76.834 39.3887 77.7129 39.9688 78.4746 40.625C80.1504 42.0547 80.9883 43.8242 80.9883 45.9336C80.9883 48.1953 80.0039 50.0176 78.0352 51.4004C76.1953 52.6895 73.8867 53.334 71.1094 53.334C68.9062 53.334 66.9609 52.9883 65.2734 52.2969C64.0312 51.8047 63.1465 51.1074 62.6191 50.2051C62.3496 49.748 62.2148 49.1914 62.2148 48.5352C62.2148 47.2227 62.543 45.998 63.1992 44.8613C63.4219 44.5918 63.7266 44.457 64.1133 44.457C64.8633 44.457 65.2969 44.6797 65.4141 45.125C65.5664 47.1523 66.1875 48.6289 67.2773 49.5547C68.3789 50.4805 69.9141 50.9434 71.8828 50.9434C74.1445 50.9434 75.6621 50.2051 76.4355 48.7285C76.7051 48.2129 76.8398 47.6094 76.8398 46.918C76.8398 46.2148 76.6523 45.5879 76.2773 45.0371C75.9023 44.4863 75.4043 43.9766 74.7832 43.5078C73.834 42.8047 72.5742 42.125 71.0039 41.4688C69.4453 40.8125 68.2266 40.2383 67.3477 39.7461C66.4805 39.2539 65.7129 38.6797 65.0449 38.0234C63.5918 36.5938 62.8652 34.8301 62.8652 32.7324C62.8652 30.5879 63.7852 28.8711 65.625 27.582C67.3945 26.3398 69.6797 25.7188 72.4805 25.7188C76.0312 25.7188 78.3516 26.4512 79.4414 27.916C79.8398 28.4434 80.0391 29.1348 80.0391 29.9902C80.0391 30.8457 79.957 31.5898 79.793 32.2227C79.6406 32.8555 79.4883 33.2656 79.3359 33.4531C79.0781 33.7695 78.6328 33.9277 78 33.9277C77.3789 33.9277 77.0684 33.7754 77.0684 33.4707ZM97.5645 50.7676C95.8535 52.4785 93.7852 53.334 91.3594 53.334C89.4844 53.334 87.9844 52.7949 86.8594 51.7168C85.7227 50.627 85.1543 49.2148 85.1543 47.4805C85.1543 45.3242 86.1152 43.707 88.0371 42.6289C89.7715 41.6445 92.2148 41.1523 95.3672 41.1523H97.5645C97.5762 40.707 97.582 40.2734 97.582 39.8516V38.5332C97.582 36.9629 97.3535 35.8555 96.8965 35.2109C96.3809 34.4844 95.502 34.1211 94.2598 34.1211C91.4121 34.1211 89.9473 35.1406 89.8652 37.1797C89.8535 37.4961 89.8594 37.7598 89.8828 37.9707C89.6484 38.1582 89.25 38.252 88.6875 38.252C88.1367 38.252 87.7324 38.1875 87.4746 38.0586C87.2285 37.9297 87.0117 37.7539 86.8242 37.5312C86.4258 37.0742 86.2266 36.4941 86.2266 35.791C86.2266 35.0762 86.4316 34.4551 86.8418 33.9277C87.2637 33.3887 87.832 32.9492 88.5469 32.6094C89.9414 31.918 91.5879 31.5723 93.4863 31.5723C95.3848 31.5723 96.8086 31.7598 97.7578 32.1348C98.7188 32.498 99.4805 32.9844 100.043 33.5938C101.039 34.6719 101.537 36.1191 101.537 37.9355L101.361 46.373C101.361 47.9082 101.432 48.8809 101.572 49.291C101.725 49.7012 101.9 49.9766 102.1 50.1172C102.311 50.2578 102.562 50.3281 102.855 50.3281C103.16 50.3281 103.406 50.2812 103.594 50.1875L104.086 49.959C104.25 49.9004 104.391 49.9707 104.508 50.1699C104.637 50.3574 104.701 50.5273 104.701 50.6797C104.701 50.8203 104.637 51.0078 104.508 51.2422C104.391 51.4766 104.162 51.7285 103.822 51.998C103.494 52.2559 103.119 52.4844 102.697 52.6836C100.365 53.7852 98.7773 53.5273 97.9336 51.9102C97.7578 51.5938 97.6348 51.2129 97.5645 50.7676ZM97.5117 48.4648C97.5117 46.7773 97.5234 45.1016 97.5469 43.4375C95.1094 43.5312 93.4512 43.6895 92.5723 43.9121C91.7051 44.123 91.0781 44.3281 90.6914 44.5273C90.3047 44.7266 90 44.9609 89.7773 45.2305C89.4141 45.6758 89.2324 46.3496 89.2324 47.252C89.2324 48.1426 89.5488 48.8574 90.1816 49.3965C90.8145 49.9238 91.7227 50.1875 92.9062 50.1875C94.582 50.1875 96.1172 49.6133 97.5117 48.4648Z" fill="#FF9430"/>
<path d="M119.133 37.8125C119.133 36.0078 118.383 34.8125 116.883 34.2266C116.402 34.0391 115.881 33.9453 115.318 33.9453C114.768 33.9453 114.252 33.9922 113.771 34.0859C113.303 34.1797 112.887 34.3262 112.523 34.5254C111.703 34.9707 111.293 35.6094 111.293 36.4414C111.293 37.2383 111.633 37.9297 112.312 38.5156C113.062 39.1367 114.457 39.9043 116.496 40.8184C118.535 41.7207 120.105 42.7109 121.207 43.7891C122.32 44.8555 122.877 46.0859 122.877 47.4805C122.877 49.0508 122.232 50.375 120.943 51.4531C119.432 52.707 117.34 53.334 114.668 53.334C111.398 53.334 109.137 52.6367 107.883 51.2422C107.449 50.75 107.232 50.123 107.232 49.3613C107.232 47.5215 107.684 46.4492 108.586 46.1445C108.809 46.0742 109.02 46.0391 109.219 46.0391C109.77 46.0391 110.068 46.209 110.115 46.5488C110.373 49.4785 112.014 50.9434 115.037 50.9434C116.854 50.9434 118.066 50.4336 118.676 49.4141C118.875 49.0859 118.975 48.6875 118.975 48.2188C118.975 47.75 118.822 47.3223 118.518 46.9355C118.225 46.5488 117.814 46.1914 117.287 45.8633C116.76 45.5234 116.133 45.1953 115.406 44.8789L113.068 43.8242C109.482 42.1836 107.689 40.0039 107.689 37.2852C107.689 35.5273 108.469 34.1211 110.027 33.0664C111.504 32.0703 113.408 31.5723 115.74 31.5723C118.904 31.5723 120.873 32.2578 121.646 33.6289C121.846 33.9805 121.945 34.3672 121.945 34.7891C121.945 35.2109 121.922 35.5918 121.875 35.9316C121.828 36.2598 121.77 36.5586 121.699 36.8281C121.582 37.3438 121.447 37.707 121.295 37.918C120.99 38.1406 120.551 38.252 119.977 38.252C119.414 38.252 119.133 38.1055 119.133 37.8125ZM141.264 46.9355C141.287 46.6777 141.639 46.5488 142.318 46.5488C142.635 46.5488 142.84 46.6133 142.934 46.7422C143.027 46.8594 143.133 47.0586 143.25 47.3398C143.367 47.6094 143.473 47.9258 143.566 48.2891C143.777 49.1094 143.883 49.918 143.883 50.7148C143.883 51.5117 143.678 52.0918 143.268 52.4551C142.857 52.8184 142.189 53 141.264 53H129.047C128.297 53 127.717 52.6895 127.307 52.0684C126.92 51.6816 126.727 51.1602 126.727 50.5039C126.727 50.1406 126.803 49.8828 126.955 49.7305C131.525 44.1289 134.268 40.7246 135.182 39.5176C136.096 38.3105 136.793 37.3438 137.273 36.6172C137.754 35.8906 138.105 35.3867 138.328 35.1055L139.014 34.2266L133.301 34.4199C132.258 34.4668 131.479 34.707 130.963 35.1406C130.447 35.5742 130.195 36.2949 130.207 37.3027C130.184 37.5488 129.867 37.6719 129.258 37.6719C128.941 37.6719 128.736 37.6133 128.643 37.4961C128.549 37.3672 128.432 37.2031 128.291 37.0039C128.162 36.793 128.039 36.5469 127.922 36.2656C127.652 35.6328 127.518 34.9297 127.518 34.1562C127.518 33.3828 127.705 32.8145 128.08 32.4512C128.467 32.0879 129.123 31.9062 130.049 31.9062H142.09C142.629 31.9062 143.027 32.4688 143.285 33.5938C143.355 33.875 143.391 34.1152 143.391 34.3145C143.391 34.5137 143.344 34.6777 143.25 34.8066L140.49 38.4805L134.777 45.793C133.84 47 133.125 47.9551 132.633 48.6582C132.152 49.3613 131.824 49.8242 131.648 50.0469L131.139 50.6973L138.17 50.4336C139.225 50.375 140.004 50.0293 140.508 49.3965C141.023 48.752 141.275 47.9316 141.264 46.9355Z" fill="white"/>
</svg>
